<?xml version="1.0" encoding="UTF-8"?>
<svg width="512" height="512" viewBox="0 0 24 24" xmlns="http://www.w3.org/2000/svg">
    <path fill="#5663f6" d="M20 9V7c0-1.1-.9-2-2-2h-3c0-1.7-1.3-3-3-3S9 3.3 9 5H6c-1.1 0-2 .9-2 2v2c-1.1 0-2 .9-2 2v5c0 1.1.9 2 2 2h1v3c0 .6.4 1 1 1h12c.6 0 1-.4 1-1v-3h1c1.1 0 2-.9 2-2v-5c0-1.1-.9-2-2-2zM12 3c.6 0 1 .4 1 1s-.4 1-1 1-1-.4-1-1 .4-1 1-1zm-2 12c-.6 0-1-.4-1-1s.4-1 1-1 1 .4 1 1-.4 1-1 1zm2-3c-.6 0-1-.4-1-1s.4-1 1-1 1 .4 1 1-.4 1-1 1zm2 3c-.6 0-1-.4-1-1s.4-1 1-1 1 .4 1 1-.4 1-1 1z"/>
</svg>
